<?xml version="1.0" standalone="no"?>
<!DOCTYPE svg PUBLIC "-//W3C//DTD SVG 20010904//EN"
 "http://www.w3.org/TR/2001/REC-SVG-20010904/DTD/svg10.dtd">
<svg version="1.0" xmlns="http://www.w3.org/2000/svg"
 width="483.000000pt" height="183.000000pt" viewBox="0 0 483.000000 183.000000"
 preserveAspectRatio="xMidYMid meet">
<metadata>
Created by potrace 1.16, written by Peter Selinger 2001-2019
</metadata>
<g transform="translate(0.000000,183.000000) scale(0.100000,-0.100000)"
fill="#000000" stroke="none">
<path d="M360 1122 l0 -689 48 -18 c82 -30 212 -103 313 -175 86 -61 141 -114
218 -210 l20 -25 0 700 0 700 -270 185 c-149 102 -284 193 -300 203 l-29 19 0
-690z"/>
<path d="M1323 1608 l-293 -202 0 -699 0 -699 57 72 c87 109 260 233 433 311
l105 47 3 686 c1 377 -1 686 -5 686 -5 -1 -140 -92 -300 -202z"/>
<path d="M160 1009 l0 -699 23 -4 c12 -3 51 -10 86 -16 84 -15 250 -73 330
-116 36 -18 66 -32 68 -30 2 2 -24 29 -59 60 -58 53 -199 134 -285 164 l-33
11 0 638 0 638 -65 26 -65 27 0 -699z"/>
<path d="M1748 1677 l-48 -21 0 -636 0 -637 -67 -28 c-140 -58 -241 -123 -299
-195 l-29 -35 32 23 c75 53 278 127 401 146 l77 12 3 697 c2 555 0 697 -10
696 -7 -1 -34 -10 -60 -22z"/>
<path d="M20 838 l0 -683 93 3 c98 4 234 -21 300 -54 l32 -17 -25 28 c-54 58
-147 95 -282 110 l-58 6 0 645 0 644 -30 0 -30 0 0 -682z"/>
<path d="M1910 876 l0 -643 -92 -12 c-104 -14 -191 -48 -233 -91 l-27 -28 58
19 c89 30 179 42 270 37 l84 -4 0 683 0 683 -30 0 -30 0 0 -644z"/>
<path d="M3650 920 l0 -290 45 0 45 0 0 290 0 290 -45 0 -45 0 0 -290z"/>
<path d="M3856 1191 c-44 -48 15 -122 70 -87 31 21 34 80 5 96 -30 15 -56 12
-75 -9z"/>
<path d="M4050 920 l0 -290 33 0 c18 0 38 5 43 10 7 7 20 6 40 -5 87 -45 201
9 234 111 17 49 8 180 -14 222 -38 73 -147 96 -220 47 l-36 -24 0 109 0 110
-40 0 -40 0 0 -290z m237 26 c27 -23 28 -28 28 -111 0 -85 -1 -87 -33 -116
-38 -34 -74 -37 -119 -9 l-33 20 0 89 0 89 35 31 c44 38 83 40 122 7z"/>
<path d="M2283 1021 c-63 -29 -96 -92 -97 -185 -1 -98 30 -161 94 -193 71 -37
156 -29 212 17 l33 29 -22 22 -23 23 -39 -22 c-21 -12 -48 -22 -60 -22 -90 0
-137 120 -89 225 23 52 95 70 149 38 34 -20 62 -10 67 26 3 17 -6 25 -40 41
-55 25 -131 25 -185 1z"/>
<path d="M2655 1026 c-37 -17 -80 -62 -94 -99 -6 -16 -11 -61 -11 -100 1 -86
19 -127 73 -171 36 -29 45 -31 116 -31 66 0 83 4 114 25 57 39 80 91 81 180 1
96 -30 157 -97 189 -50 24 -136 28 -182 7z m157 -86 c55 -68 41 -202 -23 -236
-35 -18 -63 -18 -98 1 -35 18 -53 60 -53 125 0 63 17 107 51 126 36 20 101 11
123 -16z"/>
<path d="M3010 835 l0 -205 40 0 40 0 0 144 0 144 31 26 c37 31 69 33 95 5 17
-18 19 -40 22 -170 l3 -149 39 0 38 0 4 146 c3 146 3 146 31 170 37 31 70 31
96 -2 19 -24 21 -40 21 -170 l0 -144 46 0 46 0 -4 158 c-4 176 -13 209 -70
238 -47 24 -132 15 -165 -19 l-26 -25 -30 30 c-28 28 -35 30 -84 26 -30 -3
-61 -12 -71 -21 -23 -21 -32 -21 -32 -3 0 15 -21 26 -51 26 -18 0 -19 -10 -19
-205z"/>
<path d="M3850 835 l0 -205 45 0 45 0 0 205 0 205 -45 0 -45 0 0 -205z"/>
<path d="M4420 1030 c0 -5 36 -91 80 -192 l80 -182 -35 -74 c-19 -41 -35 -78
-35 -83 0 -14 76 -11 87 4 14 18 223 510 223 525 0 7 -14 12 -35 12 -42 0 -51
-12 -104 -142 -59 -145 -51 -144 -105 -16 -65 154 -68 158 -116 158 -22 0 -40
-4 -40 -10z"/>
<path d="M3382 493 c-11 -10 -23 -28 -27 -40 -5 -19 -2 -23 17 -23 13 0 29 9
36 20 25 41 80 11 62 -35 -5 -11 -33 -45 -64 -75 -82 -79 -77 -90 35 -90 81 0
90 2 87 18 -2 12 -16 18 -52 22 -46 5 -48 6 -31 20 68 56 94 141 55 180 -25
25 -90 27 -118 3z"/>
<path d="M3575 486 c-45 -45 -45 -161 -1 -213 34 -39 98 -39 131 0 45 52 42
170 -6 218 -28 28 -93 26 -124 -5z m102 -46 c22 -43 16 -108 -12 -136 -21 -21
-27 -23 -44 -12 -23 14 -31 37 -31 93 0 77 58 113 87 55z"/>
<path d="M3785 485 c-14 -13 -25 -31 -25 -40 0 -22 32 -19 53 6 25 29 61 22
65 -13 3 -22 -10 -41 -62 -97 -36 -39 -66 -75 -66 -81 0 -6 36 -10 96 -10 86
0 95 2 92 18 -2 12 -16 18 -53 22 l-49 5 47 53 c54 60 62 103 27 140 -30 32
-93 30 -125 -3z"/>
<path d="M3997 498 c-9 -7 -21 -25 -26 -40 -10 -25 -8 -28 12 -28 12 0 28 9
35 20 14 24 45 26 62 5 17 -20 6 -43 -25 -51 -36 -9 -33 -40 6 -48 26 -5 30
-10 27 -32 -5 -42 -43 -51 -73 -18 -15 16 -31 24 -40 20 -21 -8 -19 -32 5 -56
74 -74 204 13 145 97 -10 14 -12 24 -5 28 17 11 12 80 -8 98 -22 20 -91 23
-115 5z"/>
<path d="M3097 460 c-4 -18 -13 -30 -22 -30 -8 0 -15 -7 -15 -15 0 -8 7 -15
15 -15 12 0 15 -14 15 -64 0 -85 18 -106 78 -90 28 8 26 39 -3 39 -17 0 -20 8
-23 58 -3 55 -2 57 23 57 16 0 25 6 25 15 0 9 -9 15 -25 15 -21 0 -25 5 -25
30 0 23 -5 30 -19 30 -13 0 -20 -9 -24 -30z"/>
<path d="M2763 416 c-24 -21 -28 -32 -28 -74 0 -59 21 -89 71 -98 37 -7 89 14
89 36 0 15 -23 17 -61 5 -21 -6 -54 15 -54 36 0 5 27 9 60 9 l60 0 0 30 c0 41
-39 80 -79 80 -17 0 -42 -10 -58 -24z m87 -31 c11 -13 7 -15 -30 -15 -37 0
-41 2 -30 15 7 8 20 15 30 15 10 0 23 -7 30 -15z"/>
<path d="M2942 424 c-14 -9 -22 -26 -22 -43 0 -32 11 -44 55 -58 47 -15 38
-38 -14 -38 -57 0 -64 -20 -13 -36 58 -17 96 3 100 54 3 36 1 38 -43 57 -53
23 -52 46 0 36 40 -8 57 10 30 31 -25 17 -65 17 -93 -3z"/>
<path d="M3204 286 c-10 -26 4 -48 28 -44 17 2 23 10 23 28 0 18 -6 26 -23 28
-13 2 -25 -3 -28 -12z"/>
</g>
</svg>
